<?xml version="1.0" encoding="utf-8"?>
<svg version="1.1" id="Layer_1" xmlns="http://www.w3.org/2000/svg" xmlns:xlink="http://www.w3.org/1999/xlink" x="0px" y="0px"
	 viewBox="0 0 1334 187" style="enable-background:new 0 0 1334 187;" xml:space="preserve">
<style type="text/css">
	.st0{fill:#FFFFFF;}
	.st1{fill:#23AFE5;}
	.st2{fill:#ED3B92;}
	.st3{fill:#F7981D;}
	.st4{fill:#25B580;}
</style>
<g>
	<path class="st0" d="M326.5,47.8h17.4l11.6,32.1c0.5,1.4,1,2.9,1.5,4.6c0.5,1.6,1,3.2,1.4,4.7c0.5,1.7,0.9,3.4,1.4,5.2
		c0.5-1.7,1-3.4,1.5-5.2c0.5-1.5,1-3.1,1.6-4.8c0.6-1.7,1.2-3.2,1.8-4.5l15.4-32.8h1.6l15.6,32.8c0.6,1.3,1.2,2.8,1.8,4.5
		c0.6,1.7,1.1,3.3,1.6,4.8c0.5,1.7,1.1,3.4,1.5,5.2c0.5-1.7,0.9-3.4,1.4-5.2c0.4-1.5,0.8-3.1,1.3-4.7c0.5-1.6,1-3.2,1.5-4.6
		L418,47.8h16l-29,80.6h-1.6l-18-38.5c-0.5-1.1-1.1-2.3-1.6-3.7c-0.5-1.4-1-2.7-1.4-3.9c-0.5-1.4-0.9-2.8-1.4-4.2
		c-0.5,1.4-1.1,2.8-1.5,4.2c-0.5,1.3-1,2.6-1.5,3.9c-0.5,1.4-1,2.6-1.6,3.7l-18.7,38.5H356L326.5,47.8z"/>
	<path class="st0" d="M444.8,47.8h22.1c5.6,0,10.5,0.7,15,2.1c4.4,1.4,8.2,3.4,11.2,6.1c3.1,2.7,5.4,5.9,7,9.7
		c1.6,3.8,2.5,8.1,2.5,12.9c0,4.9-0.8,9.2-2.5,13c-1.6,3.8-4,7-7,9.6c-3.1,2.6-6.8,4.6-11.2,6c-4.4,1.4-9.4,2.1-15,2.1h-5.6v18.2
		h-16.4V47.8z M466.4,95c6.7,0,11.6-1.3,14.7-4.1c3.1-2.7,4.6-6.8,4.6-12.3c0-5.6-1.5-9.7-4.6-12.4c-3.1-2.7-8-4.1-14.6-4.1h-5.2V95
		H466.4z"/>
	<path class="st0" d="M515.4,47.8h16.4v65.4H568v14.4h-52.6V47.8z"/>
	<path class="st0" d="M615.2,128.7c-5.8,0-11.2-1-16.2-3.1c-5-2.1-9.4-4.9-13.1-8.6c-3.7-3.6-6.7-8-8.8-13c-2.2-5-3.2-10.5-3.2-16.3
		c0-5.9,1.1-11.3,3.2-16.3c2.2-5,5.1-9.3,8.8-13c3.7-3.6,8.1-6.5,13.1-8.6c5-2.1,10.4-3.1,16.2-3.1c5.7,0,11.1,1,16.1,3.1
		c5,2.1,9.4,4.9,13.2,8.6c3.7,3.6,6.7,8,8.8,13c2.2,5,3.2,10.5,3.2,16.3c0,5.9-1.1,11.3-3.2,16.3c-2.2,5-5.1,9.3-8.8,13
		c-3.7,3.6-8.1,6.5-13.2,8.6C626.3,127.6,620.9,128.7,615.2,128.7z M615.2,114c3.6,0,6.9-0.7,9.9-2c3-1.3,5.6-3.2,7.8-5.5
		c2.2-2.3,3.8-5.1,5-8.3c1.2-3.2,1.8-6.7,1.8-10.5c0-3.8-0.6-7.2-1.8-10.5c-1.2-3.2-2.8-6-5-8.3c-2.2-2.3-4.7-4.2-7.8-5.5
		c-3-1.3-6.3-2-9.9-2c-3.7,0-7,0.7-10,2c-3,1.3-5.5,3.2-7.7,5.5c-2.2,2.3-3.8,5.1-5,8.3c-1.2,3.2-1.8,6.7-1.8,10.5
		c0,3.8,0.6,7.2,1.8,10.5c1.2,3.2,2.8,6,5,8.3c2.2,2.3,4.7,4.2,7.7,5.5C608.2,113.3,611.5,114,615.2,114z"/>
	<path class="st0" d="M709.1,128.7c-5.8,0-11.2-1-16.2-3.1c-5-2.1-9.4-4.9-13.1-8.6c-3.7-3.6-6.7-8-8.8-13c-2.2-5-3.2-10.5-3.2-16.3
		c0-5.9,1.1-11.3,3.2-16.3c2.2-5,5.1-9.3,8.8-13c3.7-3.6,8.1-6.5,13.1-8.6c5-2.1,10.4-3.1,16.2-3.1c5.7,0,11.1,1,16.1,3.1
		c5,2.1,9.4,4.9,13.2,8.6c3.7,3.6,6.7,8,8.8,13c2.2,5,3.2,10.5,3.2,16.3c0,5.9-1.1,11.3-3.2,16.3c-2.2,5-5.1,9.3-8.8,13
		c-3.7,3.6-8.1,6.5-13.2,8.6C720.2,127.6,714.8,128.7,709.1,128.7z M709.1,114c3.6,0,6.9-0.7,9.9-2c3-1.3,5.6-3.2,7.8-5.5
		c2.2-2.3,3.8-5.1,5-8.3c1.2-3.2,1.8-6.7,1.8-10.5c0-3.8-0.6-7.2-1.8-10.5c-1.2-3.2-2.8-6-5-8.3c-2.2-2.3-4.7-4.2-7.8-5.5
		c-3-1.3-6.3-2-9.9-2c-3.7,0-7,0.7-10,2c-3,1.3-5.5,3.2-7.7,5.5c-2.2,2.3-3.8,5.1-5,8.3c-1.2,3.2-1.8,6.7-1.8,10.5
		c0,3.8,0.6,7.2,1.8,10.5c1.2,3.2,2.8,6,5,8.3c2.2,2.3,4.7,4.2,7.7,5.5C702.1,113.3,705.4,114,709.1,114z"/>
	<path class="st0" d="M779.8,88.7c0.9-2.1,2-4.3,3.2-6.6c1.2-2.3,2.4-4.2,3.6-5.9l21.1-28.5h18.7l-26.8,36.2l30.1,43.7h-19.8
		l-21.3-31.4l-7.8,9.3v22.1h-16.4V47.8h16.4v27.6c0,2-0.1,4.2-0.4,6.6C780.3,84.5,780,86.7,779.8,88.7z"/>
	<path class="st0" d="M887.1,128.7c-3.8,0-7.3-0.4-10.5-1.3c-3.1-0.9-6-2-8.5-3.5c-2.5-1.5-4.7-3.2-6.5-5.3
		c-1.8-2.1-3.3-4.3-4.5-6.6l13.4-7.8c1.8,2.9,3.9,5.3,6.4,7.2c2.5,1.9,5.7,2.8,9.8,2.8c3.4,0,6.2-0.8,8.2-2.3c2-1.5,3-3.5,3-5.8
		c0-2.8-1.1-4.9-3.2-6.4c-2.1-1.4-5-2.9-8.8-4.6l-4.1-1.8c-3-1.3-5.7-2.6-8.1-4.1c-2.4-1.5-4.5-3.2-6.2-5.2c-1.7-2-3.1-4.2-4-6.7
		c-0.9-2.5-1.4-5.5-1.4-8.8c0-3.1,0.6-5.9,1.7-8.6c1.1-2.7,2.7-5,4.8-6.9c2.1-2,4.6-3.5,7.6-4.6c3-1.1,6.3-1.6,10-1.6
		c5.2,0,9.8,1,13.6,3c3.8,2,7.1,5.4,9.8,10.2l-12.8,8.2c-1.4-2.5-2.9-4.3-4.6-5.4c-1.6-1.1-3.6-1.6-6-1.6c-2.4,0-4.3,0.7-5.8,2
		c-1.4,1.3-2.1,3-2.1,5c0,2.5,0.8,4.4,2.4,5.7c1.6,1.3,4.2,2.7,7.7,4.3l4.1,1.8c3.5,1.5,6.6,3,9.3,4.6c2.7,1.6,5,3.4,6.8,5.4
		c1.8,2,3.2,4.3,4.2,6.8c1,2.5,1.5,5.5,1.5,9c0,3.7-0.7,6.9-2.1,9.8c-1.4,2.9-3.3,5.3-5.7,7.2c-2.4,2-5.3,3.4-8.6,4.4
		C894.7,128.2,891,128.7,887.1,128.7z"/>
	<path class="st0" d="M943,62.2h-22.8V47.8h62v14.4h-22.8v65.4H943V62.2z"/>
	<path class="st0" d="M1026.4,128.7c-4.6,0-8.9-0.6-12.9-1.8c-4-1.2-7.4-3.1-10.3-5.6c-2.9-2.5-5.2-5.6-6.8-9.3
		c-1.6-3.7-2.5-8.1-2.5-13.2v-51h16.4v50c0,5.9,1.3,10,3.9,12.4c2.6,2.4,6.6,3.6,12.1,3.6c5.4,0,9.4-1.2,11.9-3.6
		c2.5-2.4,3.8-6.6,3.8-12.4v-50h16.4v51c0,5.1-0.8,9.5-2.5,13.2c-1.6,3.7-3.9,6.8-6.8,9.3c-2.9,2.5-6.3,4.4-10.2,5.6
		C1035.2,128.1,1030.9,128.7,1026.4,128.7z"/>
	<path class="st0" d="M1074.9,47.8h24.5c6.1,0,11.7,1,16.9,2.9c5.2,2,9.6,4.7,13.3,8.2c3.7,3.5,6.6,7.7,8.7,12.6
		c2.1,4.9,3.1,10.3,3.1,16.1c0,5.9-1,11.3-3.1,16.1c-2.1,4.9-5,9.1-8.7,12.6c-3.7,3.5-8.1,6.3-13.3,8.2c-5.1,2-10.8,2.9-17,2.9
		h-24.5V47.8z M1098.6,113.2c4.5,0,8.3-0.6,11.6-1.9c3.2-1.3,5.9-3,8-5.3c2.1-2.3,3.7-4.9,4.7-8c1-3.1,1.5-6.5,1.5-10.3
		c0-3.8-0.5-7.2-1.5-10.3c-1-3.1-2.6-5.8-4.7-8c-2.1-2.3-4.8-4-8-5.3c-3.2-1.3-7.1-1.9-11.6-1.9h-7.3v51H1098.6z"/>
	<path class="st0" d="M1155.7,47.8h16.4v79.9h-16.4V47.8z"/>
	<path class="st0" d="M1227.7,128.7c-5.8,0-11.2-1-16.2-3.1c-5-2.1-9.4-4.9-13.1-8.6c-3.7-3.6-6.7-8-8.8-13
		c-2.2-5-3.2-10.5-3.2-16.3c0-5.9,1.1-11.3,3.2-16.3c2.2-5,5.1-9.3,8.8-13c3.7-3.6,8.1-6.5,13.1-8.6c5-2.1,10.4-3.1,16.2-3.1
		c5.7,0,11.1,1,16.1,3.1c5,2.1,9.4,4.9,13.2,8.6c3.7,3.6,6.7,8,8.8,13c2.2,5,3.2,10.5,3.2,16.3c0,5.9-1.1,11.3-3.2,16.3
		c-2.2,5-5.1,9.3-8.8,13c-3.7,3.6-8.1,6.5-13.2,8.6C1238.8,127.6,1233.4,128.7,1227.7,128.7z M1227.7,114c3.6,0,6.9-0.7,9.9-2
		c3-1.3,5.6-3.2,7.8-5.5c2.2-2.3,3.8-5.1,5-8.3c1.2-3.2,1.8-6.7,1.8-10.5c0-3.8-0.6-7.2-1.8-10.5c-1.2-3.2-2.8-6-5-8.3
		c-2.2-2.3-4.7-4.2-7.8-5.5c-3-1.3-6.3-2-9.9-2c-3.7,0-7,0.7-10,2c-3,1.3-5.5,3.2-7.7,5.5c-2.2,2.3-3.8,5.1-5,8.3
		c-1.2,3.2-1.8,6.7-1.8,10.5c0,3.8,0.6,7.2,1.8,10.5c1.2,3.2,2.8,6,5,8.3c2.2,2.3,4.7,4.2,7.7,5.5C1220.7,113.3,1224,114,1227.7,114
		z"/>
</g>
<polygon id="wpl1" class="st1" points="18,19.8 54.6,19.8 77.9,51.1 125.7,165.6 "/>
<polygon id="wpl3" class="st2" points="189.5,19.8 206.8,19.8 215,39.1 125.7,165.6 "/>
<polyline id="wpl4" class="st3" points="206.8,19.8 228,19.8 215,39.1 "/>
<polygon id="wpl5" class="st3" points="257.5,19.8 292.6,19.8 239.1,96.5 225.4,63.9 "/>
<polygon id="wpl6" class="st2" points="179.6,99.6 189.5,113.6 225.4,63.9 239.1,96.5 189.5,167.4 160.5,126.1 "/>
<polygon id="wpl2" class="st4" points="90.9,19.8 189.5,19.8 125.7,165.6 77.9,51.1 123.7,111.4 170,45.8 145.9,45.8 153.1,55.5
	134.3,82.2 "/>
</svg>
